# xmcd
# Copyright (C) 1995-1998 Ti Kan
#
# Track frame offsets:
#       150
#       23601
#       53725
#       86656
#       108410
#       127196
#       146495
#       170199
#       188376
#       208007
#       218396
#       238220
#
# Disc length: 3514 seconds
#
# Revision: 1
# Processed by: cddbd v1.5.2PL0 Copyright (c) Steve Scherf et al.
# Submitted via: CD-Transfer v1.0
#
DISCID=a60db80c
DTITLE=Americana 02 - 
DYEAR=1900
DGENRE=
TTITLE0=Peter Case - Spell Of Whels
TTITLE1=Poco - Rose Of Cimarron
TTITLE2=Robert Francis - All Of My Trains
TTITLE3=Scott Goddard - Cowpunk
TTITLE4=Smog - Cold Blooded Mountain
TTITLE5=The Jayhawks - Waiiting For Tonight
TTITLE6=The White Buffalo - House Of The Rising Sun
TTITLE7=Tom Russell - Old America
TTITLE8=Townes Van Zandt - Tecumseh Valley
TTITLE9=Uncle Tupelo
TTITLE10=Whiskeytown - (What You) Think About Me
TTITLE11=Willard Grand Conspiracy - Soft Hand
EXTD=
EXTT0=
EXTT1=
EXTT2=
EXTT3=
EXTT4=
EXTT5=
EXTT6=
EXTT7=
EXTT8=
EXTT9=
EXTT10=
EXTT11=
PLAYORDER=
